<svg width="255" height="255" viewBox="0 0 255 255" fill="none" xmlns="http://www.w3.org/2000/svg">
<path d="M196 0H60C26.8629 0 0 26.8629 0 60V196C0 229.137 26.8629 256 60 256H196C229.137 256 256 229.137 256 196V60C256 26.8629 229.137 0 196 0Z" fill="#242938"/>
<g clip-path="url(#clip0_4_90)">
<path d="M106.179 44.3972L95.2496 46.5775L85.2787 51.9474L76.8102 58.4905L68.751 70.5697L64.1987 76.493L59.7952 78.4864L58.6312 74.9904L60.6673 71.3812L61.1249 66.2908L62.4881 66.3589L63.9782 68.0285L63.576 62.8431L61.9241 61.4814L61.9757 59.5054L58.0627 62.224L54.5197 67.3587L53.7805 71.9472L55.2964 75.6222L56.7092 81.8644L59.5832 83.5357L62.606 83.3536L65.4729 81.3079L63.5606 93.2201L65.4729 106.474L63.3679 112.594L56.4727 121.719L57.6986 127.171L60.965 133.487L67.1235 138.81L70.39 139.36L74.022 139.51L71.7558 150.937L80.0883 155.13L90.4691 156.808L94.0205 153.957L94.2938 146.238L98.2557 138.184L98.529 131.809L108.091 132.648L116.969 131.642L108.091 138.184L109.594 146.071L115.193 156.808L120.657 159.66L125.028 157.479L126.803 153.117L135.956 144.56L137.731 146.405L152.074 147.077L154.942 144.226L155.215 139.191L154.26 137.011L153.576 123.421L148.795 111.676L149.615 106.475L152.483 108.321L160.543 117.548L164.504 117.884L168.874 115.703L173.246 111.676L175.431 102.952L188.272 103.958L196.057 100.268L202.34 93.0531L206.848 82.6506L207.94 70.4035L206.984 56.1416L204.526 43.3918L202.067 39.3654L198.653 38.0227L192.642 46.0756L187.178 48.4244L182.397 38.6933L177.617 33.325L175.021 31.3118L164.64 20.7414L156.308 15.2045L147.975 14.3661L138.278 16.3794L129.809 20.2372L123.935 26.1097L119.291 32.9893L114.511 34.6677L106.178 44.398" fill="#FFFF00"/>
<path d="M74.4854 74.6777C65.1255 88.0878 67.2048 104.35 69.799 120.286C68.4149 115.989 67.0304 111.693 65.6456 107.397L64.1149 95.5801C64.2605 91.5521 64.4056 87.5241 64.5525 83.4969L68.4867 71.9504L74.3893 61.2091L83.5713 51.812L93.6273 46.7097L105.433 44.8303L94.5019 60.1356C85.7247 63.6316 80.5498 65.9876 74.4847 74.6777" fill="#FFFFCC"/>
<path d="M118.55 33.8198C112.043 41.6177 108.489 47.4998 104.347 56.6301C101.386 63.1613 98.063 69.4527 94.9479 75.8929C93.3734 79.153 93.2245 81.8858 92.7533 85.6455L88.1623 78.9321C88.8919 76.2468 89.6203 73.5615 90.3486 70.8769L97.7819 54.4973L113.523 35.4316C115.198 34.8941 116.874 34.3581 118.55 33.8198ZM150.687 14.4873C145.475 16.8868 136.82 17.6777 136.219 25.0244C135.792 30.2431 136.54 32.8651 139.1 38.3861C132.775 30.3468 131.211 31.5905 118.988 34.089L124.234 24.9595L133.416 17.977L145.222 14.7549L150.687 14.4873Z" fill="#FFFFCC"/>
<path d="M165.068 113.873C166.804 115.189 166.766 116.142 166.476 117.044C167.844 116.371 169.213 115.698 170.582 115.027L173.242 110.639L175.217 104.388L172.693 102.058L161.665 103.787C161.393 104.699 161.119 105.612 160.845 106.526C160.923 107.822 161.002 109.119 161.079 110.415C161.431 111.185 161.784 111.953 162.136 112.721C162.684 113.057 163.23 113.394 163.778 113.73C164.209 113.777 164.639 113.826 165.068 113.873ZM164.042 90.7097C158.514 92.6691 158.557 93.209 156.925 99.9453C159.08 95.6988 160.675 93.5558 164.042 90.7097ZM200.796 40.3035C199.814 40.8616 198.856 41.1292 198.242 42.2336C196.92 44.6102 195.787 46.6092 193.6 48.2772C192.498 49.1179 191.36 49.6626 190.192 50.1099C189.223 50.4796 188.64 50.1487 187.816 50.8778C188.306 50.9807 188.795 51.0868 189.284 51.1921H192.52L196.509 48.1672L198.855 45.1406L200.796 40.3035ZM112.745 55.3705C110.571 62.68 108.671 68.9452 105.377 75.562C109.598 69.976 112.157 65.2276 114.575 58.9124C115.514 56.4583 115.692 53.5798 118.308 54.6501C118.425 57.1011 118.847 59.5489 118.964 61.9984C120.377 49.5549 124.363 44.3497 133.628 39.5198L125.768 40.6732L118.377 42.6904L114.74 49.1741L112.745 55.3705ZM130.695 55.0824C132.693 66.6328 135.57 77.7193 136.82 89.4534C137.631 97.0779 137.72 100.741 134.597 107.32C131.184 107.048 129.064 107.521 125.762 108.85C112.618 114.142 105.079 121.924 96.2235 106.245L104.706 111.155C106.721 110.668 108.736 110.182 110.751 109.694C114.31 107.149 117.869 104.603 121.428 102.058L129.757 100.04L132.455 86.2083L130.46 67.9074C130.383 65.0257 130.304 62.144 130.226 59.2624C130.383 57.869 130.54 56.4749 130.695 55.0824ZM153.337 126.554C152.233 135.938 155.879 140.983 154.369 143.575C153.942 144.308 153.362 145.589 152.716 145.94C150.405 147.194 147.228 145.705 147.002 146.439H139.377L136.327 144.854L141.019 138.081C142.544 134 144.07 129.916 145.594 125.833L148.527 113.442H150.052L153.337 126.554Z" fill="#CCCC00"/>
<path d="M140.52 99.2724C141.14 103.533 142.215 104.546 143.847 108.67C142.761 115.399 141.016 123.401 138.917 129.338C138.031 131.842 137.317 133.223 135.755 135.158C133.118 138.427 130.455 141.274 127.466 144.108C125.313 146.145 123.811 145.124 121.157 144.663C120.027 147.176 119.716 148.573 117.637 149.85C114.442 151.811 111.582 147.583 109.073 145.094C110.885 148.57 112.696 152.043 114.506 155.517C115.757 156.958 117.009 158.398 118.26 159.84L121.428 160.417L125.65 157.245C126.394 155.517 127.136 153.787 127.88 152.059C129.444 150.618 131.009 149.178 132.572 147.735C134.489 145.719 136.405 143.701 138.321 141.684L141.957 135.343L145.241 127.851C146.65 122.664 148.058 117.476 149.466 112.289C149.583 110.319 149.7 108.35 149.818 106.38C148.058 105.421 146.298 104.459 144.538 103.498C143.248 102.01 141.811 100.762 140.52 99.2724ZM98.4336 129.292C104.354 129.292 110.607 128.888 116.031 125.833C117.565 123.007 119.08 120.697 120.958 118.197C119.249 122.162 118.713 124.402 118.26 128.859L116.5 132.03C112.042 132.173 107.585 132.317 103.126 132.462C101.679 132.269 100.232 132.078 98.7855 131.886C98.6289 131.692 98.4729 131.5 98.3163 131.309C98.3562 130.636 98.3949 129.964 98.4336 129.292ZM97.6131 124.249L97.1529 119.131C96.1416 126.611 96.3846 131.624 93.5822 138.324C91.4887 141.302 88.9113 144.013 85.9593 145.464C86.2087 147.3 86.2835 148.448 86.1385 149.795C85.6184 154.64 77.7293 152.499 74.4834 152.306L90.1043 157.246L93.6234 155.517C94.0153 152.732 94.4065 149.945 94.7971 147.16L98.0817 139.667L98.6682 135.056L97.6124 124.25M88.8133 82.0284C88.6502 85.6661 88.4588 87.1821 89.7646 90.3931C91.4243 94.475 93.4623 98.3114 95.2657 102.346L95.8522 94.2762C93.5068 90.1928 91.16 86.111 88.8139 82.0292M64.7317 109.5C64.2231 110.827 63.7165 112.155 63.208 113.483C64.6053 119.266 65.8486 122.929 68.5099 127.981C68.0459 130.027 67.6991 130.922 66.633 132.591C64.2908 132.149 62.2109 132.021 59.8371 132.03C62.4571 134.526 65.0771 137.025 67.6972 139.523C68.9875 139.233 70.2785 138.945 71.5689 138.658L75.4406 133.903L69.9266 123.383C68.1941 118.756 66.4629 114.127 64.7317 109.5ZM200.813 38.3909C202.409 47.2077 204.467 55.3452 204.276 64.3766C204.041 75.4559 202.284 89.4518 193.925 96.1327C184.565 103.616 173.578 100.076 163.308 96.8697L175.861 103.21C179.771 103.451 183.682 103.692 187.593 103.931C190.252 102.97 192.912 102.01 195.57 101.049C197.642 98.9352 199.715 96.823 201.788 94.7085L206.48 82.6055L208.24 68.6278C207.771 64.0639 207.301 59.5015 206.832 54.9383L204.251 41.3937C203.105 40.3922 201.959 39.3908 200.813 38.3909ZM61.1313 64.6711C56.8826 68.0681 55.2132 69.5596 55.6792 75.8557L56.949 81.5122L58.7491 83.0084L60.9728 83.9189L64.9959 82.748C65.6849 80.1252 66.3727 77.5032 67.0604 74.8804L61.3434 78.3273H60.0202C59.5262 77.3951 59.0321 76.463 58.5377 75.5312L60.3379 72.2798L61.2905 66.1024C61.6966 66.2536 62.1026 66.4064 62.508 66.5568C63.0024 67.035 63.4961 67.5116 63.9905 67.9874L63.7784 64.7368L62.7729 62.6563C62.4378 62.3079 62.1026 61.9628 61.7675 61.6152L61.1313 64.6711ZM156.464 15.0613C160.236 19.3632 164.864 23.1014 167.881 28.3581C169.048 30.3927 170.345 31.4337 167.861 34.3083C170.485 33.3876 171.461 33.4873 173.562 33.8C177.384 34.3684 180.966 41.0422 181.195 45.8239C181.149 46.2712 180.133 47.2869 177.178 48.2891C177.12 48.4284 175.51 48.0184 175.55 48.1529C175.857 49.1845 176.267 49.3428 176.894 49.8249C177.03 50.9729 177.117 52.7438 177.754 53.9994C179.614 53.9582 181.431 54.2076 183.252 54.6502C183.864 55.8986 183.773 57.1471 183.721 58.3963L185.833 57.9649C185.638 55.9952 185.442 54.0263 185.247 52.0567C185.872 50.7599 186.497 49.4624 187.124 48.1672L184.425 40.6733C182.705 38.6561 180.984 36.6382 179.263 34.621L178.767 34.5909C176.831 33.1323 174.896 31.6735 172.961 30.2146L163.493 20.7003L156.464 15.0613ZM162.817 50.5652C162.618 50.9927 162.318 51.6751 161.933 52.1485C163.504 53.9733 164.279 55.1956 164.839 57.7772C163.063 58.8594 161.288 59.9432 159.512 61.0247L155.004 66.3328C153.026 65.0249 152.534 64.0211 151.576 61.5274C150.461 61.8907 149.406 62.2399 148.486 61.8242C149.07 61.8298 149.428 61.6509 150.012 61.2075L152.88 57.5477C154.569 55.977 156.258 54.4047 157.946 52.8349L161.262 51.5072C161.685 51.2943 162.395 50.7789 162.817 50.5652Z" fill="#CCCC00"/>
<path d="M167.719 57.0742C162.069 60.8109 156.659 64.5681 153.77 71.6638C153.77 62.657 161.132 58.6924 167.718 57.0734M152.648 39.3559C148.453 42.8693 145.487 49.9595 145.859 56.8691C144.493 50.8857 144.977 45.2324 149.172 41.0999C149.881 40.678 150.588 40.2544 151.297 39.8325C151.747 39.6741 152.197 39.5158 152.648 39.3559Z" fill="#CCCC00"/>
<path d="M209.101 55.669C208.34 49.7766 207.079 44.0568 205.328 39.9441C205.116 39.4414 204.792 38.9316 204.391 38.4455C203.522 37.3926 202.235 36.3951 200.905 35.8338C199.496 35.2384 198.01 35.1173 196.831 35.8742C196.525 36.0721 196.24 36.3254 195.987 36.6421C195.223 37.5921 194.578 38.7479 193.933 39.9045C193.216 41.1934 192.494 42.4885 191.63 43.3934C190.629 44.4447 189.377 45.0828 188.196 45.6655C187.698 44.1839 187.1 42.7562 186.408 41.3976C185.601 39.8159 184.681 38.3347 183.669 36.8534C182.929 35.7625 182.09 34.7789 181.168 33.9219C180.295 33.1041 179.402 32.4154 178.361 31.6158C175.572 29.4704 173.197 26.9117 170.775 24.3008C169.674 23.1149 168.562 21.9179 167.475 20.8167C161.707 14.9742 156.326 12.1408 150.572 11.6967C144.857 11.2549 138.822 13.1834 131.697 16.8678C128.257 18.6451 125.704 20.7462 123.479 23.2724C121.354 25.687 119.55 28.4673 117.566 31.7139C116.413 31.8145 115.391 32.0243 114.347 32.5373C113.197 33.1025 112.04 34.0177 110.653 35.5211C109.687 36.5673 108.742 37.6408 107.817 38.7408C106.969 39.7506 106.137 40.7791 105.32 41.8259C98.8332 43.106 93.548 44.5191 88.8146 46.7706C83.9742 49.0744 79.7074 52.2427 75.3252 57.0148C73.5997 58.8871 72.0267 60.9613 70.6285 63.208C69.2956 65.3527 68.1548 67.6073 67.1538 69.9847C66.2773 71.1762 65.3988 72.3787 64.4481 73.4308C63.5213 74.456 62.5332 75.3197 61.4259 75.843C60.782 76.1478 60.5165 76.3267 60.4874 76.3149C60.4552 76.2927 60.4372 76.1739 60.3921 75.9554C61.9821 74.0919 62.2322 71.3535 62.3791 68.6349C62.5699 68.9152 62.753 69.2603 62.9431 69.6213C63.1532 70.0195 63.3685 70.4304 63.6263 70.8302L64.7059 72.503L65.0849 70.4162C65.4033 68.6674 65.6418 66.3391 65.2705 64.3203C65.0308 63.0101 64.5357 61.8424 63.6734 61.0151C63.7559 60.7507 63.8339 60.5069 63.9106 60.2662C64.1813 59.4151 64.4603 58.5419 64.6969 57.717L65.1648 56.0822L63.7726 56.3783C61.9202 56.7742 57.9396 59.4611 55.1359 63.0339C54.095 64.3615 53.1997 65.8284 52.6126 67.3674C52.0015 68.969 51.7276 70.6449 51.9648 72.3217C52.1711 73.7879 52.7685 75.2271 53.8533 76.584C54.0512 77.5633 54.2336 78.4128 54.4289 79.1791C54.6525 80.0507 54.8929 80.8305 55.1939 81.5984C56.0099 83.6821 57.3106 84.9551 58.8162 85.5489C60.026 86.0262 61.364 86.05 62.6763 85.6969C62.4098 87.617 62.2492 89.5571 62.1955 91.5038C62.1123 94.2232 62.1935 97.2275 62.4372 100.714C62.4907 101.48 62.5712 102.321 62.675 103.236C62.7652 104.017 62.8722 104.783 62.9876 105.544C62.7427 106.366 62.4958 107.189 62.2496 108.011L61.1043 111.84L58.5841 114.908C57.7998 115.86 57.0154 116.815 56.2316 117.769C56.1672 117.848 55.9023 118.16 55.6625 118.444C54.0737 120.322 53.7592 120.695 54.2104 123.999C54.4994 126.114 55.0614 128.159 55.8752 130.056C56.6551 131.88 57.7018 133.657 59.045 135.311C60.7208 137.375 63.4678 139.938 66.3437 141.281C67.9872 142.047 69.681 142.422 71.2711 142.109C71.1899 142.41 71.1113 142.709 71.0217 143.011C70.77 143.869 70.4905 144.713 70.1838 145.543C68.2328 150.796 70.2353 153.539 73.3523 155.284C74.9088 156.155 76.7593 156.747 78.4783 157.298C78.8302 157.409 79.1821 157.523 79.6255 157.67C81.6622 158.347 85.182 159.589 88.3969 159.838C91.9058 160.11 95.0704 159.221 95.9186 155.352C96.2538 153.819 96.4491 152.645 96.5284 151.495C96.6012 150.428 96.5735 149.349 96.4716 148.015C97.4719 145.291 97.896 144.526 98.6276 143.212C98.7707 142.953 98.9441 142.642 98.9963 142.544C99.7807 141.117 100.148 140.103 100.281 138.963C100.41 137.861 100.301 136.764 100.139 135.087C100.124 134.928 100.1 134.696 100.066 134.388C102.087 134.71 104.121 134.881 106.158 134.901C107.181 134.908 108.202 134.871 109.224 134.806C108.963 134.969 108.707 135.133 108.427 135.309L108.047 135.549C105.337 137.261 105.224 140.502 106.073 143.838C106.837 146.845 108.411 149.916 109.398 151.784C111.474 155.713 113.454 159.038 115.856 160.846C118.373 162.74 121.249 162.964 124.961 160.496C126.849 159.24 127.445 157.96 128.246 156.234C128.492 155.708 128.763 155.134 129.064 154.568C129.844 153.933 131.786 151.966 133.692 150.03C134.341 149.371 134.989 148.716 135.721 147.984C136.225 148.439 136.833 148.755 137.569 148.97C138.524 149.251 139.662 149.378 141.025 149.498C142.045 149.59 145.372 149.587 147.522 149.586C148.186 149.586 148.737 149.586 149.067 149.588C151.286 149.605 153.078 149.462 154.431 148.52C155.874 147.515 156.729 145.736 156.916 142.546C156.997 141.129 157.012 140.255 156.852 139.362C156.702 138.526 156.41 137.769 155.909 136.66C155.879 135.282 155.849 133.903 155.819 132.524C155.788 131.062 155.754 129.598 155.723 128.136C155.685 126.412 155.531 125.01 155.246 123.632C154.963 122.263 154.56 120.947 154.02 119.366C153.684 118.371 153.366 117.366 153.067 116.353L152.289 116.703L152.409 116.649L153.067 116.353V116.349C152.603 114.812 152.146 113.315 151.505 111.713C151.546 111.405 151.588 111.072 151.629 110.718L152.866 112.182L154.69 114.341C156.081 115.987 157.353 117.484 158.847 118.565C160.392 119.686 162.129 120.335 164.378 120.204C166.733 120.068 169.253 118.85 171.328 116.969C173.335 115.149 174.946 112.695 175.618 109.979L176.201 107.623L176.666 105.743C179.969 106.43 183.514 106.652 186.937 106.211C190.241 105.785 193.433 104.752 196.186 102.948C200.232 100.296 203.266 96.3899 205.446 91.7516H205.448C207.884 86.5677 209.249 80.4592 209.767 74.1734C210.182 69.1321 209.956 62.2786 209.101 55.669ZM166.312 98.0374C164.409 97.2505 163.086 96.1026 161.414 94.8082C161.869 97.3281 162.076 99.9928 161.47 102.508C160.508 106.5 158.955 113.029 163.367 114.234C165.046 114.692 165.808 114.626 168.178 113.123C166.26 113.657 165.292 113.527 163.973 113.226C162.778 112.956 162.145 112.025 161.811 110.925C162.229 111.295 162.909 111.496 164.073 111.84C167.344 112.809 170.46 110.874 171.07 108.089C171.424 106.462 171.364 105.607 172.118 103.388C172.794 103.646 173.494 103.879 174.212 104.093L172.996 108.961C171.946 113.172 167.85 116.569 164.234 116.49C160.891 116.418 158.771 113.846 156.463 111.325C154.874 109.586 153.344 107.925 151.828 106.278C147.667 104.665 144.333 102.781 140.471 99.27C143.219 103.236 145.083 105.432 148.915 107.406C148.358 114.388 146.382 119.48 144.698 126.163C143.935 129.184 137.917 141.292 136.249 142.473C135.06 143.314 127.61 151.02 126.21 152.038C125.166 153.74 124.25 156.093 122.68 157.111C117.899 160.216 114.827 154.27 112.254 149.249C111.083 146.961 107.829 140.371 110.665 138.525C113.346 136.781 114.848 135.535 117.584 133.328C117.986 134.228 118.675 135.097 119.124 135.995L118.827 133.046C118.646 131.264 118.654 129.818 118.769 128.026C118.881 126.29 118.992 124.555 119.102 122.819C118.691 124.584 117.868 126.347 117.458 128.11C117.293 128.817 117.157 129.387 117.079 129.915C110.94 131.456 104.846 131.552 98.7062 130.207C98.3143 127.415 97.8374 124.505 97.4371 122.419C97.316 124.755 97.394 131.213 97.3843 134.829C97.3766 137.63 97.2812 138.59 96.1043 140.973C95.0034 143.204 94.5374 143.71 92.995 147.48C93.1239 149.859 93.1259 151.431 92.6115 153.688C91.7562 157.442 83.124 154.534 80.8476 153.768C78.0432 152.825 72.2463 151.424 73.7042 146.833C74.9868 142.792 75.8002 138.531 76.4274 132.877C71.2898 123.786 66.5125 111.329 65.5954 100.292C64.8832 91.7223 65.3105 86.4474 66.82 81.205C69.2125 72.8988 72.5602 65.7089 77.9304 59.9194C85.1749 52.1112 91.9464 48.9762 102.55 46.9931C100 50.5002 97.4777 54.2068 94.7282 58.1817C91.9444 62.2058 90.2912 66.2702 88.5233 70.6727C86.0818 76.7519 86.1346 79.0651 89.3708 84.4025C92.1597 89.0021 93.6653 91.0723 94.8835 95.5729C93.878 98.1189 93.5119 100.271 93.1742 103.748C96.5889 108.334 99.1271 111.475 102.443 112.443C105.696 113.393 108.411 113.209 111.322 111.382C117.784 107.324 123.764 102.083 131.055 101.866C134.427 91.6819 134.086 83.1715 132.467 73.3176C131.361 66.5877 130.917 60.2155 130.574 53.3549C129.207 60.4206 128.95 66.6336 129.964 73.6723C131.187 82.1534 132.138 91.5244 128.736 98.9787C122.143 99.5986 116.494 104.525 110.553 108.305C108.164 109.825 105.677 109.973 103.034 109.081C100.581 108.253 98.9247 106.259 96.2815 102.514C96.2396 98.7547 96.9305 97.0201 98.3363 93.6144C100.595 88.1463 103.087 83.0567 105.822 77.6773C102.474 82.6427 99.2998 86.7918 96.6637 91.7848C95.6557 88.2587 94.2145 86.468 91.8278 82.497C89.4965 78.6186 89.2529 76.9213 90.9963 72.4325C92.7488 67.9224 94.2351 63.9585 97.2186 60.0018C102.373 53.1642 107.095 45.5546 112.733 38.8207C115.793 35.1648 117.036 35.2907 121.096 34.5354C124.766 33.8514 128.348 32.9893 132.09 31.9222C128.471 32.3362 124.973 32.4882 121.449 32.5951L121.34 32.599C124.807 27.1611 126.819 24.1306 132.449 21.1254C146.311 13.7312 155.119 12.9317 166.009 24.1741C168.831 27.089 171.296 29.9177 174.157 32.4312C173.119 32.5404 172.225 32.7692 171.043 33.3392C172.482 33.002 174.144 33.3361 175.638 33.6717C176.057 34.0058 176.489 34.332 176.929 34.651C178.95 36.1132 180.096 36.9207 181.463 39.2585C182.907 41.7293 184.11 44.1985 185.171 46.9203C184.476 46.6147 183.893 46.3574 183.373 46.1682C182.794 45.842 182.158 45.6966 181.522 45.7449C180.886 45.7933 180.269 46.0338 179.727 46.4453L179.643 46.4928C178.526 47.1617 176.794 47.9233 175.636 48.1545C176.227 48.4046 177.534 48.4989 178.151 48.1988C178.233 48.1592 178.317 48.1276 178.403 48.103C178.117 48.7003 177.941 49.3672 177.888 50.0569C177.815 50.9674 177.959 51.8842 178.301 52.6971L178.304 52.7058C178.408 53.0082 178.554 53.2861 178.714 53.4872C178.185 53.727 177.644 54.0009 177.086 54.2978C179.67 53.8149 182 53.7318 184.52 54.1395C184.687 55.1156 184.854 56.1503 185.01 57.2024L184.073 57.2927C184.048 57.295 184.023 57.2976 183.998 57.3006C182.805 56.1297 181.476 56.3269 179.66 56.8359C174.138 58.382 175.435 62.1876 172.896 67.9224C175.533 63.9625 175.337 59.8189 179.636 58.5681C180.637 58.2775 181.319 57.9126 181.997 58.0377C180.777 58.7913 179.722 60.0414 179.303 61.4925C178.123 65.5846 178.856 69.0323 177.559 72.8545C179.164 69.4377 179.262 66.1032 180.698 62.5074C181.213 61.217 183.126 59.1507 184.301 59.1191L185.267 59.0929C185.551 61.3666 185.723 63.6252 185.614 65.4983C185.413 68.9167 184.69 73.9905 184.257 75.9325C185.712 73.6359 186.374 68.7727 187.013 65.3479C187.678 61.7838 187.51 57.5064 186.928 53.6764C186.129 48.4221 190.535 49.2771 193.092 46.8007C194.972 44.9799 196.267 42.0737 197.99 40.0138C199.7 37.9713 202.393 40.9725 203.065 42.9683C205.981 51.6347 207.309 65.2679 206.54 74.004C205.675 83.8064 201.82 94.5074 194.781 99.3334C185.808 105.485 175.228 101.727 166.312 98.0374ZM153.562 141.574C153.27 145.619 152.172 145.886 149.281 145.824C147.967 145.795 142.736 145.766 141.408 145.626C139.533 145.427 138.48 145.222 137.907 144.696C140.853 142.039 145.86 131.07 146.837 127.293C147.869 123.303 148.999 119.821 149.839 116.133C150.226 117.675 150.531 119.202 151.094 120.839C152.033 123.575 152.492 125.265 152.559 128.2L152.772 137.489C153.58 139.224 153.705 139.595 153.562 141.574ZM64.8793 110.935C66.7504 118.886 69.9382 126.699 73.4722 133.267V133.382C73.2498 134.512 72.9939 135.611 72.457 136.493C69.9305 140.645 63.5058 134.551 61.6457 132.221C59.6128 129.67 58.2522 126.651 57.928 123.819C57.6921 121.754 57.9216 121.703 59.0946 120.242L63.8397 114.342L64.8793 110.935ZM61.3054 60.9336C60.8258 62.1979 60.4855 63.1566 60.2541 64.143C59.2467 68.4164 60.7098 72.2307 57.551 75.3284C59.0353 79.0065 58.967 80.4743 62.4198 78.7746C63.7514 78.1175 64.8496 77.1992 65.8306 76.1114C65.3557 77.6266 64.9192 79.1595 64.5216 80.7078C64.4532 80.9691 64.3882 81.2327 64.3256 81.4939C61.8564 82.7812 58.6086 83.599 57.366 80.4117C56.7627 78.864 56.4217 77.3456 55.9815 75.3902C51.9152 70.2159 57.9938 63.3838 61.3054 60.9336ZM63.3041 66.4151C62.802 65.7976 62.4004 65.3804 61.7514 65.4706C61.8062 64.9481 61.879 64.4438 61.9815 63.9704C62.033 63.7266 62.0885 63.4875 62.1478 63.2476C62.9895 63.8501 63.2112 64.9426 63.3041 66.4151ZM185.235 47.0873C185.389 47.4847 185.539 47.8893 185.688 48.2986C185.565 48.4094 185.449 48.5258 185.34 48.6485C185.139 48.0742 184.85 47.5531 184.488 47.1142C184.731 47.1032 184.979 47.0937 185.235 47.0873ZM47.377 75.5509C48.0241 66.552 49.4486 62.6665 54.6538 55.8938C48.1247 61.5447 46.4953 64.1137 47.377 75.5509Z" fill="black"/>
<path d="M45.6929 68.2003C46.4115 64.1502 47.0818 62.6214 49.1153 59.2972C45.816 62.1274 45.3867 63.2896 45.6922 68.2003M122.295 11.7394C118.384 12.8976 117.638 13.7859 116.465 18.4955C118.337 15.047 119.414 13.9252 122.295 11.7394Z" fill="black"/>
<path d="M128.464 11.0538C120.705 13.3892 118.426 15.0502 115.849 26.0947C119.124 18.0055 121.604 15.0272 128.464 11.053M145.172 51.3148C145.999 46.815 147.469 42.479 153.158 39.124C145.617 41.4435 144.203 45.3338 145.172 51.3148ZM193.156 51.626C197.622 49.6705 199.775 45.2602 200.844 40.0716C199.096 44.4202 196.399 48.0571 192.735 50.2849C190.768 51.4803 189.512 51.0631 187.316 50.8074C189.55 51.5951 190.964 52.5855 193.156 51.626ZM162.733 56.0355C162.161 54.5605 161.139 53.4208 159.889 52.8617C160.985 52.1437 162.06 51.3892 162.9 50.4511C160.441 51.8492 157.578 51.508 155.468 53.2584C153.61 54.8005 151.045 59.6867 149.156 61.7585C150.524 61.1062 151.842 59.978 153.056 58.7897C153.062 59.9184 153.319 61.0236 153.799 61.9864C154.278 62.9492 154.962 63.7334 155.778 64.2546C155.079 65.3778 154.523 66.6243 154.129 67.9517C157.725 62.7172 162.938 58.7636 167.841 57.0734C166.47 57.0497 164.848 57.364 163.195 58.0313C163.134 57.3389 162.978 56.6642 162.733 56.0355ZM157.56 95.5888C157.385 96.9441 157.145 98.6288 156.971 99.9849C157.438 98.4507 158 96.6678 158.543 95.2048C159.119 93.6563 159.444 93.5107 160.666 92.6937C161.533 92.1142 163.107 91.3177 163.974 90.7382C163.082 90.9227 161.484 91.3257 160.592 91.5101C158.209 92.0041 157.929 92.7071 157.56 95.5888ZM116.865 43.2572C114.1 46.6139 111.414 58.1327 110.557 62.7417C111.908 58.9132 115.291 48.2036 117.886 45.4795C118.602 44.7266 119.103 44.2642 119.641 43.9278C117.784 47.7539 117.92 48.7055 118.572 53.8315C119.126 48.62 120.593 46.6068 123 42.7189C125.639 41.9059 128.108 40.9313 130.815 39.6346C127.767 40.058 124.715 40.4469 121.66 40.8015C119.096 41.1 118.683 41.0493 116.865 43.2572Z" fill="black"/>
<path d="M154.532 62.8652C154.29 62.2414 154.26 61.5253 154.448 60.8742C154.636 60.2232 155.027 59.6904 155.535 59.393C155.811 59.2319 156.113 59.146 156.419 59.1411C156.726 59.1363 157.029 59.2126 157.309 59.3649C157.589 59.5172 157.839 59.7419 158.042 60.0237C158.245 60.3055 158.396 60.6377 158.485 60.9977C157.476 61.9184 156.551 63.0014 155.775 64.257C155.253 63.9989 154.79 63.5302 154.531 62.8652M178.143 51.6457C178.228 50.573 178.972 49.7821 179.846 49.8858C180.266 49.9367 180.652 50.1899 180.921 50.59C181.19 50.9902 181.318 51.5046 181.279 52.021C181.261 52.2424 181.212 52.4584 181.135 52.6599C180.336 52.8285 179.537 53.1151 178.713 53.4871C178.369 53.0541 178.094 52.264 178.143 51.6457Z" fill="#FFFFCC"/>
</g>
<path fill-rule="evenodd" clip-rule="evenodd" d="M189.282 220.999H205.272C205.932 217.543 206.592 214.087 207.253 210.631C211.816 210.631 216.527 210.664 221.091 210.664C223.319 210.664 225.292 209.868 227.045 208.505C229.16 206.86 230.739 204.339 231.333 201.229C232.336 195.968 233.345 190.709 234.354 185.449C234.93 182.447 235.679 179.056 233.808 176.344C232.087 173.849 229.803 173.655 227.296 173.655C209.243 173.678 191.189 173.655 173.135 173.655C171.313 173.655 169.786 174.333 168.193 175.278C166.699 174.062 165.35 173.655 163.518 173.655H138.738C139.415 170.151 140.091 166.647 140.767 163.143H124.753C124.093 166.561 123.433 169.98 122.773 173.398H108.688C106.743 173.398 104.874 174.1 103.243 175.307C101.661 174.174 100.442 173.683 98.5681 173.683H52.0795C52.7892 170.132 53.4988 166.58 54.2082 163.028C48.8784 163.019 43.5481 163.01 38.2184 163C35.1455 178.817 32.0726 194.635 29 210.452C34.325 210.454 39.65 210.456 44.9745 210.458C46.5764 202.363 48.1781 194.268 49.7798 186.172H55.1854C55.8287 186.172 55.7021 186.594 55.5942 187.152C54.0792 194.92 52.564 202.689 51.0492 210.458C86.351 210.458 121.652 210.458 156.956 210.458C158.753 210.458 160.159 210.03 161.776 209.081C163.37 210.307 164.779 210.714 166.727 210.695L191.256 210.458C190.598 213.972 189.94 217.486 189.282 221L189.282 220.999ZM120.11 186.206H115.396C114.569 186.206 114.346 186.64 114.182 187.493C113.592 190.54 113.002 193.587 112.411 196.633C112.243 197.508 112.628 197.651 113.294 197.651H117.882C118.625 193.836 119.368 190.021 120.11 186.206ZM147.152 186.427H152.188C153.157 186.427 153.104 187.012 152.93 187.915C152.353 190.899 151.776 193.884 151.199 196.868C150.998 197.91 150.434 197.892 149.656 197.892H144.532C143.779 197.892 143.773 197.38 143.906 196.68C144.481 193.696 145.056 190.712 145.629 187.728C145.842 186.623 146.22 186.427 147.152 186.427ZM180.299 186.427H185.335C186.304 186.427 186.251 187.012 186.076 187.915C185.5 190.899 184.923 193.884 184.346 196.868C184.145 197.91 183.581 197.892 182.803 197.892H177.679C176.926 197.892 176.92 197.38 177.053 196.68C177.628 193.696 178.203 190.712 178.776 187.728C178.989 186.623 179.367 186.427 180.299 186.427ZM209.859 197.978H214.573C215.4 197.978 215.623 197.544 215.788 196.691C216.378 193.644 216.968 190.597 217.558 187.551C217.726 186.676 217.342 186.532 216.676 186.532H212.088C211.345 190.348 210.602 194.163 209.859 197.978Z" fill="black"/>
<path fill-rule="evenodd" clip-rule="evenodd" d="M141.264 176.154H161.821C165.029 176.154 167.072 179.15 166.362 182.811L162.699 201.683C161.989 205.345 158.782 208.341 155.575 208.341H135.018C131.811 208.341 129.767 205.345 130.478 201.683L134.14 182.811C134.851 179.149 138.056 176.154 141.264 176.154ZM144.99 183.73H155.154C156.852 183.73 157.933 185.316 157.557 187.253L155.619 197.241C155.243 199.178 153.546 200.764 151.848 200.764H141.684C139.986 200.764 138.905 199.178 139.281 197.241L141.22 187.253C141.596 185.315 143.292 183.73 144.99 183.73Z" fill="#66C2E3"/>
<path fill-rule="evenodd" clip-rule="evenodd" d="M127.927 165.126L125.826 175.912L109.068 175.897C105.862 175.895 102.661 178.891 101.95 182.552L98.2762 201.432C97.5656 205.093 99.61 208.087 102.818 208.087H127.494L133.744 175.913L135.832 165.126L127.927 165.126ZM112.797 183.48H124.362L121.04 200.503H109.489C107.791 200.503 106.713 198.926 107.089 196.99L109.028 186.993C109.403 185.056 111.1 183.48 112.797 183.48Z" fill="#66C2E3"/>
<path fill-rule="evenodd" clip-rule="evenodd" d="M39.3125 165.126L36.1128 181.592H36.1534L36.0178 182.242C35.9671 182.43 35.9196 182.622 35.8823 182.815L33.2249 196.48H33.252L30.9878 208.087H38.8922L41.1564 196.48H41.17L42.9596 187.256C42.9627 187.242 42.957 187.225 42.9596 187.21L43.6511 183.728H55.1891C56.8863 183.728 57.9781 185.319 57.6024 187.256L55.7856 196.604L53.5621 208.087H61.48L63.717 196.604H63.7305L66.4014 182.815C67.1118 179.153 65.0676 176.144 61.8594 176.144H45.0883L47.2305 165.126L39.3125 165.126Z" fill="#66C2E3"/>
<path fill-rule="evenodd" clip-rule="evenodd" d="M95.308 208.084H68.9372C65.7295 208.084 63.686 205.087 64.3965 201.426L65.4591 195.951H65.464L65.6683 194.898C66.3783 191.237 69.5859 188.239 72.7927 188.24L91.2446 188.249L91.5168 186.851C91.8065 185.026 90.7986 183.547 89.2139 183.473H67.8541L69.3245 175.9L95.832 175.909C98.9737 175.979 100.96 178.946 100.258 182.564L99.7595 185.134H99.7639L99.1583 188.253H99.1642L96.0536 204.273H96.0478L95.3081 208.083L95.308 208.084ZM74.8094 200.507H88.8582L89.7717 195.816H75.9637C75.8973 195.808 75.8289 195.804 75.7591 195.804C74.628 195.804 73.4987 196.86 73.2493 198.151C73.0026 199.427 73.7039 200.473 74.8118 200.497C74.8113 200.501 74.8105 200.504 74.8094 200.507Z" fill="#66C2E3"/>
<path fill-rule="evenodd" clip-rule="evenodd" d="M175.148 176.154H195.705C198.914 176.154 200.957 179.15 200.246 182.811L196.583 201.683C195.873 205.345 192.667 208.341 189.459 208.341H168.902C165.695 208.341 163.651 205.345 164.362 201.683L168.024 182.811C168.735 179.149 171.94 176.154 175.148 176.154ZM178.875 183.73H189.038C190.736 183.73 191.817 185.316 191.441 187.253L189.503 197.241C189.127 199.178 187.43 200.764 185.732 200.764H175.568C173.871 200.764 172.789 199.178 173.165 197.241L175.104 187.253C175.48 185.315 177.176 183.73 178.875 183.73Z" fill="#66C2E3"/>
<path fill-rule="evenodd" clip-rule="evenodd" d="M202.781 219.103L204.882 208.316L221.64 208.332C224.846 208.333 228.047 205.338 228.758 201.677L232.432 182.796C233.142 179.136 231.098 176.141 227.89 176.141H203.214L196.964 208.316L194.876 219.102L202.781 219.103ZM217.911 200.749H206.346L209.668 183.725H221.22C222.917 183.725 223.995 185.302 223.619 187.238L221.68 197.236C221.305 199.172 219.608 200.749 217.911 200.749Z" fill="#66C2E3"/>
<defs>
<clipPath id="clip0_4_90">
<rect width="165" height="152" fill="white" transform="translate(45 11)"/>
</clipPath>
</defs>
</svg>
